HIERARCHY
ROOT root
{
	OFFSET 0.000000 0.000000 0.000000
	CHANNELS 6 Xposition Yposition Zposition Zrotation Yrotation Xrotation
	JOINT lhip
	{
		OFFSET 0.058581 -0.082280 -0.017664
		CHANNELS 3 Zrotation Yrotation Xrotation
		JOINT lknee
		{
			OFFSET 0.043451 -0.386469 0.008037
			CHANNELS 3 Zrotation Yrotation Xrotation
			JOINT lankle
			{
				OFFSET -0.014790 -0.426874 -0.037428
				CHANNELS 3 Zrotation Yrotation Xrotation
				JOINT ltoe
				{
					OFFSET 0.041054 -0.060286 0.122042
					CHANNELS 3 Zrotation Yrotation Xrotation
					End Site
					{
						OFFSET 0.000000 0.000000 0.000000
					}
				}
			}
		}
	}
	JOINT rhip
	{
		OFFSET -0.060310 -0.090513 -0.013543
		CHANNELS 3 Zrotation Yrotation Xrotation
		JOINT rknee
		{
			OFFSET -0.043257 -0.383688 -0.004843
			CHANNELS 3 Zrotation Yrotation Xrotation
			JOINT rankle
			{
				OFFSET 0.019056 -0.420046 -0.034562
				CHANNELS 3 Zrotation Yrotation Xrotation
				JOINT rtoe
				{
					OFFSET -0.034840 -0.062106 0.130323
					CHANNELS 3 Zrotation Yrotation Xrotation
					End Site
					{
						OFFSET 0.000000 0.000000 0.000000
					}
				}
			}
		}
	}
	JOINT lowerback
	{
		OFFSET 0.004439 0.124404 -0.038385
		CHANNELS 3 Zrotation Yrotation Xrotation
		JOINT upperback
		{
			OFFSET 0.004488 0.137956 0.026820
			CHANNELS 3 Zrotation Yrotation Xrotation
			JOINT chest
			{
				OFFSET -0.002265 0.056032 0.002855
				CHANNELS 3 Zrotation Yrotation Xrotation
				JOINT lowerneck
				{
					OFFSET -0.013390 0.211636 -0.033468
					CHANNELS 3 Zrotation Yrotation Xrotation
					JOINT upperneck
					{
						OFFSET 0.010113 0.088937 0.050410
						CHANNELS 3 Zrotation Yrotation Xrotation
						End Site
						{
							OFFSET 0.000000 0.000000 0.000000
						}
					}
				}
				JOINT lclavicle
				{
					OFFSET 0.071702 0.114000 -0.018898
					CHANNELS 3 Zrotation Yrotation Xrotation
					JOINT lshoulder
					{
						OFFSET 0.122921 0.045205 -0.019046
						CHANNELS 3 Zrotation Yrotation Xrotation
						JOINT lelbow
						{
							OFFSET 0.255332 -0.015649 -0.022946
							CHANNELS 3 Zrotation Yrotation Xrotation
							JOINT lwrist
							{
								OFFSET 0.265709 0.012698 -0.007375
								CHANNELS 3 Zrotation Yrotation Xrotation
								End Site
								{
									OFFSET 0.000000 0.000000 0.000000
								}
							}
						}
					}
				}
				JOINT rclavicle
				{
					OFFSET -0.082954 0.112472 -0.023707
					CHANNELS 3 Zrotation Yrotation Xrotation
					JOINT rshoulder
					{
						OFFSET -0.113228 0.046853 -0.008472
						CHANNELS 3 Zrotation Yrotation Xrotation
						JOINT relbow
						{
							OFFSET -0.260127 -0.014369 -0.031269
							CHANNELS 3 Zrotation Yrotation Xrotation
							JOINT rwrist
							{
								OFFSET -0.269108 0.006794 -0.006027
								CHANNELS 3 Zrotation Yrotation Xrotation
								End Site
								{
									OFFSET 0.000000 0.000000 0.000000
								}
							}
						}
					}
				}
			}
		}
	}
}
MOTION
Frames: 8
Frame Time: 0.033333
-2.158762 0.693367 0.988139 96.151875 -1.496381 88.096019 -0.186505 -1.204827 -6.939039 -3.661354 -5.540088 15.447716 2.410324 7.772046 -16.027865 0.000000 -0.000000 0.000000 0.957917 -7.938094 -7.250818 -6.859561 -18.740179 19.697849 -2.416259 -22.133351 -16.849423 0.000000 -0.000000 0.000000 -0.755127 3.281142 13.355547 -1.087711 -0.270404 -1.860059 0.174528 0.664143 3.804218 3.650410 -5.450624 -11.427054 5.293695 -9.808687 -5.545940 -22.220350 -1.399593 -0.946335 -55.309918 -10.654803 7.129808 6.193339 -18.526376 5.168835 -0.119794 -0.717797 -9.556451 21.372833 5.350351 -0.704630 61.331041 2.251736 15.272718 -11.740640 20.741174 9.333489 5.998696 -2.925187 5.645613 
-2.162460 0.700858 0.989003 98.145559 -1.615883 88.116392 -1.072150 -1.470855 -6.893060 -3.571727 -6.761722 14.531191 2.873347 7.390562 -15.748528 0.000000 -0.000000 0.000000 0.531572 -8.143497 -7.641654 -7.159442 -18.908775 20.398808 -2.462720 -22.611006 -17.991654 0.000000 -0.000000 0.000000 -0.605515 3.304531 13.368125 -0.861325 -0.556156 -1.811648 0.092132 0.607763 3.868358 3.763932 -5.970631 -11.137638 5.316803 -11.075958 -5.339020 -21.995285 -1.770967 -0.788280 -55.092482 -10.486226 8.084314 3.969036 -19.354415 7.592037 -1.597877 -0.290764 -9.192755 21.559096 5.586518 -0.979927 61.104204 2.549877 15.501662 -11.308709 23.238359 9.134822 7.105989 -3.105781 4.842562 
-2.165763 0.707157 0.989062 99.440433 -1.519237 88.199614 -1.792437 -1.488040 -6.654965 -2.945038 -7.758734 13.312374 2.926665 6.996420 -15.301573 0.000000 -0.000000 0.000000 0.577531 -7.473179 -8.115493 -6.520076 -17.374565 20.689869 -1.531542 -21.013431 -20.169070 0.000000 -0.000000 0.000000 -0.489712 3.437654 12.763102 -0.433100 -0.533118 -1.119327 0.143506 0.369432 3.965167 4.015404 -6.067921 -10.655669 4.923381 -12.379641 -5.518303 -22.047663 -1.991629 -0.960485 -54.837282 -10.416528 9.457578 1.149821 -20.049756 9.678444 -2.937279 -0.068123 -8.913073 21.855385 5.395352 -1.688826 60.414775 3.192767 16.077614 -10.798147 26.383956 7.423954 6.901307 -2.091044 2.486645 
-2.166068 0.711796 0.989098 99.676220 -1.547060 87.705048 -2.478398 -1.573428 -5.662644 -2.520842 -8.485656 12.474311 2.870526 7.505043 -15.199420 0.000000 -0.000000 0.000000 0.785354 -5.405894 -8.060843 -5.509029 -14.255333 21.484068 -0.794960 -19.067523 -21.263374 0.000000 -0.000000 0.000000 -0.613470 3.124165 12.638721 -0.181022 -0.425077 -0.529858 0.026955 0.563212 4.016769 4.150546 -5.808620 -10.516466 4.349451 -13.573028 -5.174014 -22.163523 -2.163454 -1.116593 -54.490537 -9.679374 10.410447 -0.147080 -20.869761 11.037375 -3.161180 -0.533620 -8.433825 22.446107 5.922056 -2.066981 59.980180 4.106274 16.911764 -10.684823 29.362569 5.377641 5.225830 -0.568464 -0.480084 
-2.166561 0.714638 0.989630 99.909115 -1.528518 87.178255 -2.995377 -1.832957 -5.030864 -2.276312 -9.144004 12.497627 2.773610 7.926957 -15.650818 0.000000 -0.000000 0.000000 1.361560 -3.004211 -7.892344 -4.389782 -11.078977 22.456307 0.355226 -16.254395 -22.274584 0.000000 -0.000000 0.000000 -0.897096 2.691751 12.911570 0.177078 -0.415459 -0.676238 -0.128929 0.807918 4.101265 4.271991 -5.686138 -10.290109 4.003447 -14.950478 -4.791385 -22.132712 -2.229896 -1.364670 -54.988729 -8.994366 11.057799 0.251439 -20.776877 11.616470 -3.298967 -0.817546 -7.342529 22.717595 6.125143 -2.625548 60.297900 5.109314 17.453275 -11.303766 32.381124 4.348733 4.784874 0.397900 -2.862541 
-2.166922 0.716541 0.989399 100.170723 -1.634297 86.964726 -3.316833 -2.431378 -4.861546 -2.262611 -9.099726 12.776278 2.988158 8.027169 -15.869569 0.000000 -0.000000 0.000000 1.928093 -1.186464 -7.529078 -3.451064 -7.774626 22.128623 1.157429 -13.049654 -21.770192 0.000000 -0.000000 0.000000 -1.303445 2.674512 12.237265 0.504694 -0.554768 -0.250317 -0.288927 0.840969 4.308205 4.475068 -6.284729 -10.008203 4.045839 -16.713645 -4.793901 -21.915296 -1.936332 -1.900445 -56.254209 -9.114534 11.178397 1.396315 -19.887206 10.442250 -4.479780 -0.477489 -7.022338 22.470394 5.862524 -3.385409 61.344091 6.094490 18.340758 -12.331311 35.446193 4.427375 5.570254 0.259575 -3.472259 
-2.166482 0.717796 0.988452 100.412207 -2.079025 86.787767 -3.828457 -2.431665 -4.792562 -2.305638 -8.666700 13.115408 3.001046 7.685038 -16.328591 0.000000 -0.000000 0.000000 2.072654 -0.998628 -6.949711 -4.352959 -6.597502 21.197718 0.677846 -13.263748 -19.999625 0.000000 -0.000000 0.000000 -1.659094 2.666982 11.939029 0.226297 -0.728490 -0.320170 -0.547503 0.784784 4.232865 4.606969 -7.792171 -9.908465 4.273829 -17.767816 -4.445116 -22.095952 -1.491001 -2.006137 -56.772325 -9.177884 10.520453 2.609657 -19.510567 8.787403 -5.320956 -0.200152 -7.792029 22.252265 5.949494 -3.888978 62.211941 6.455400 19.292272 -13.231133 38.448124 4.552856 6.579708 0.383451 -3.941244 
-2.165957 0.718244 0.987602 100.128857 -2.303515 86.846895 -3.975399 -2.612694 -5.023895 -2.480680 -8.320054 13.630174 3.073727 7.599801 -16.413817 0.000000 -0.000000 0.000000 2.170381 -1.322665 -6.693153 -4.925181 -6.386339 20.480063 -0.386747 -13.263603 -18.924194 0.000000 -0.000000 0.000000 -1.589707 2.926502 11.085940 -0.243119 -0.762334 0.048561 -0.874536 0.633792 4.015104 4.587115 -9.002452 -9.727991 4.532180 -18.310281 -4.117544 -23.161453 -1.827842 -1.742941 -56.441725 -9.133917 9.844074 5.254887 -19.209718 5.687696 -2.323990 -0.798766 -7.973293 22.553619 6.760745 -3.556297 61.934342 7.181907 19.893262 -13.095326 40.879245 5.072789 4.310627 1.299344 -4.881117 
